<?xml version="1.0" encoding="UTF-8"?>
<svg width="46px" height="46px" viewBox="0 0 46 46" version="1.1" xmlns="http://www.w3.org/2000/svg" xmlns:xlink="http://www.w3.org/1999/xlink">
    <!-- Generator: Sketch 48 (47235) - http://www.bohemiancoding.com/sketch -->
    <title>application</title>
    <desc>Created with Sketch.</desc>
    <defs></defs>
    <g id="标签栏图标（空）" stroke="none" stroke-width="1" fill="none" fill-rule="evenodd" transform="translate(-453.000000, -11.000000)">
        <g id="标签栏--copy" fill-rule="nonzero" stroke="#979797" stroke-width="3">
            <g id="应用" transform="translate(453.000000, 11.000000)">
                <g id="application">
                    <path d="M14.4510374,1.5 L7.18536963,1.5 C4.06181151,1.5 1.5,4.05563847 1.5,7.18536963 L1.5,14.4510374 C1.5,17.5745956 4.05563847,20.1364071 7.18536963,20.1364071 L14.4510374,20.1364071 C17.5745956,20.1364071 20.1364071,17.5807686 20.1364071,14.4510374 L20.1364071,7.18536963 C20.1364071,4.06181151 17.5807686,1.5 14.4510374,1.5 Z M37.8146304,1.5 L30.5489626,1.5 C27.4254044,1.5 24.8635929,4.05563847 24.8635929,7.18536963 L24.8635929,14.4510374 C24.8635929,17.5745956 27.4192314,20.1364071 30.5489626,20.1364071 L37.8146304,20.1364071 C40.9381885,20.1364071 43.5,17.5807686 43.5,14.4510374 L43.5,7.18536963 C43.5,4.06181151 40.9443615,1.5 37.8146304,1.5 Z M14.4244473,24.9317965 C17.5312708,24.9317965 20.0682035,27.4687292 20.0682035,30.5755527 L20.0682035,37.7880403 C20.0682035,40.8948637 17.5251429,43.4317965 14.4244473,43.4317965 L7.21195975,43.4317965 C4.10513629,43.4317965 1.56820354,40.8887358 1.56820354,37.7880403 L1.56820354,30.5755527 C1.56820354,27.4687292 4.11126415,24.9317965 7.21195975,24.9317965 L14.4244473,24.9317965 Z M37.9120964,24.6135929 C41.1257958,24.6135929 43.75,27.2377971 43.75,30.4514965 L43.75,37.9120964 C43.75,41.1257958 41.1194571,43.75 37.9120964,43.75 L30.4514965,43.75 C27.2377971,43.75 24.6135929,41.1194571 24.6135929,37.9120964 L24.6135929,30.4514965 C24.6135929,27.2377971 27.2441358,24.6135929 30.4514965,24.6135929 L37.9120964,24.6135929 Z" id="Shape"></path>
                </g>
            </g>
        </g>
    </g>
</svg>