<?xml version="1.0" encoding="UTF-8"?>
<svg width="45px" height="45px" viewBox="0 0 45 45" version="1.1" xmlns="http://www.w3.org/2000/svg" xmlns:xlink="http://www.w3.org/1999/xlink">
    <!-- Generator: Sketch 48 (47235) - http://www.bohemiancoding.com/sketch -->
    <title>application-active</title>
    <desc>Created with Sketch.</desc>
    <defs></defs>
    <g id="标签栏图标（实）" stroke="none" stroke-width="1" fill="none" fill-rule="evenodd" transform="translate(-453.000000, -11.000000)">
        <g id="标签栏--copy" fill="#1B8AE0" fill-rule="nonzero">
            <g id="应用" transform="translate(453.000000, 11.000000)">
                <g id="application-active">
                    <path d="M15.0358337,0 L6.60057334,0 C2.97419971,0 0,2.96703297 0,6.60057334 L0,15.0358337 C0,18.6622074 2.96703297,21.6364071 6.60057334,21.6364071 L15.0358337,21.6364071 C18.6622074,21.6364071 21.6364071,18.6693741 21.6364071,15.0358337 L21.6364071,6.60057334 C21.6364071,2.97419971 18.6693741,2.03691181e-15 15.0358337,0 Z M38.3994267,0 L29.9641663,0 C26.3377926,0 23.3635929,2.96703297 23.3635929,6.60057334 L23.3635929,15.0358337 C23.3635929,18.6622074 26.3306259,21.6364071 29.9641663,21.6364071 L38.3994267,21.6364071 C42.0258003,21.6364071 45,18.6693741 45,15.0358337 L45,6.60057334 C45,2.97419971 42.032967,2.03691181e-15 38.3994267,0 Z M15.0358337,23.3635929 L6.60057334,23.3635929 C2.97419971,23.3635929 0,26.3306259 0,29.9641663 L0,38.3994267 C0,42.0258003 2.96703297,45 6.60057334,45 L15.0358337,45 C18.6622074,45 21.6364071,42.032967 21.6364071,38.3994267 L21.6364071,29.9641663 C21.6364071,26.3306259 18.6693741,23.3635929 15.0358337,23.3635929 Z M38.3994267,23.3635929 L29.9641663,23.3635929 C26.3377926,23.3635929 23.3635929,26.3306259 23.3635929,29.9641663 L23.3635929,38.3994267 C23.3635929,42.0258003 26.3306259,45 29.9641663,45 L38.3994267,45 C42.0258003,45 45,42.032967 45,38.3994267 L45,29.9641663 C45,26.3306259 42.032967,23.3635929 38.3994267,23.3635929 Z" id="Shape"></path>
                </g>
            </g>
        </g>
    </g>
</svg>