<?xml version="1.0" encoding="UTF-8"?>
<svg width="42px" height="45px" viewBox="0 0 42 45" version="1.1" xmlns="http://www.w3.org/2000/svg" xmlns:xlink="http://www.w3.org/1999/xlink">
    <!-- Generator: Sketch 48 (47235) - http://www.bohemiancoding.com/sketch -->
    <title>mail list-active</title>
    <desc>Created with Sketch.</desc>
    <defs></defs>
    <g id="标签栏图标（实）" stroke="none" stroke-width="1" fill="none" fill-rule="evenodd" transform="translate(-263.000000, -11.000000)">
        <g id="mail-list-active" transform="translate(263.000000, 11.000000)" fill-rule="nonzero">
            <path d="M35.7882303,0 C39.2045551,0 42,2.76065218 42,6.13663044 L42,38.8633696 C42,42.2383696 39.2045551,45 35.7882303,45 L6.80096198,45 C4.52341212,45 2.65978216,43.158913 2.65978216,40.908913 L2.65978216,36.7297826 L1.98047814,36.7297826 C0.886264002,36.7297826 0,35.8532609 0,34.7732609 C0,33.6922826 0.886264002,32.8167391 1.98047814,32.8167391 L2.65978216,32.8167391 L2.65978216,23.9869565 L1.98047814,23.9869565 C0.886264002,23.9869565 0,23.111413 0,22.0304348 C0,20.9504348 0.886264002,20.073913 1.98047814,20.073913 L2.65978216,20.073913 L2.65978216,12.1842391 L1.98047814,12.1842391 C0.886264002,12.1842391 0,11.3077174 0,10.2277174 C0,9.14673911 0.886264002,8.27119564 1.98047814,8.27119564 L2.65978216,8.27119564 L2.65978216,4.09108698 C2.65978216,1.84108698 4.52341212,0 6.80096198,0 L35.7882303,0 Z" id="Shape" fill="#1B8AE0"></path>
            <path d="M31.5968254,30.6486486 L13.4031746,30.6486486 L13.4031746,30.2854054 C13.4031746,25.7275676 17.497619,22 22.5,22 C20.0892332,22 18.1349206,20.0639341 18.1349206,17.6756757 C18.1349206,15.2874173 20.0892332,13.3513514 22.5,13.3513514 C24.9107668,13.3513514 26.8650794,15.2874173 26.8650794,17.6756757 C26.8650794,20.0639341 24.9107668,22 22.5,22 C27.502381,22 31.5968254,25.7275676 31.5968254,30.2854054 L31.5968254,30.6486486 Z" id="Shape" fill="#FFFFFF"></path>
        </g>
    </g>
</svg>