<?xml version="1.0" encoding="UTF-8"?>
<svg width="42px" height="45px" viewBox="0 0 42 45" version="1.1" xmlns="http://www.w3.org/2000/svg" xmlns:xlink="http://www.w3.org/1999/xlink">
    <!-- Generator: Sketch 48 (47235) - http://www.bohemiancoding.com/sketch -->
    <title>mail list</title>
    <desc>Created with Sketch.</desc>
    <defs></defs>
    <g id="标签栏图标（空）" stroke="none" stroke-width="1" fill="none" fill-rule="evenodd" transform="translate(-263.000000, -10.000000)">
        <g id="通讯录" transform="translate(254.000000, 10.000000)" fill="#9B9B9B" fill-rule="nonzero">
            <g id="mail-list" transform="translate(9.000000, 0.000000)">
                <path d="M39.0292828,38.8633696 C39.0292828,40.6291304 37.5756118,42.0652174 35.7882303,42.0652174 L6.80096198,42.0652174 C6.16720895,42.0652174 5.63049939,41.5359783 5.63049939,40.908913 L5.63049939,36.7297826 L6.55241194,36.7297826 C7.64662612,36.7297826 8.53289008,35.8532609 8.53289008,34.7732609 C8.53289008,33.6922826 7.64662612,32.8167391 6.55241194,32.8167391 L5.63049939,32.8167391 L5.63049939,23.9869565 L6.55241194,23.9869565 C7.64662612,23.9869565 8.53289008,23.111413 8.53289008,22.0304348 C8.53289008,20.9504348 7.64662612,20.073913 6.55241194,20.073913 L5.63049939,20.073913 L5.63049939,12.1842391 L6.55241194,12.1842391 C7.64662612,12.1842391 8.53289008,11.3077174 8.53289008,10.2277174 C8.53289008,9.14673911 7.64662612,8.27119564 6.55241194,8.27119564 L5.63049939,8.27119564 L5.63049939,4.09108698 C5.63049939,3.46402173 6.16720895,2.93478262 6.80096198,2.93478262 L35.7882303,2.93478262 C37.5756118,2.93478262 39.0292828,4.37086956 39.0292828,6.13663044 L39.0292828,38.8633696 Z M35.7882303,0 L6.80096198,0 C4.52341212,0 2.65978216,1.84108698 2.65978216,4.09108698 L2.65978216,8.27119564 L1.98047814,8.27119564 C0.886264002,8.27119564 0,9.14673911 0,10.2277174 C0,11.3077174 0.886264002,12.1842391 1.98047814,12.1842391 L2.65978216,12.1842391 L2.65978216,20.073913 L1.98047814,20.073913 C0.886264002,20.073913 0,20.9504348 0,22.0304348 C0,23.111413 0.886264002,23.9869565 1.98047814,23.9869565 L2.65978216,23.9869565 L2.65978216,32.8167391 L1.98047814,32.8167391 C0.886264002,32.8167391 0,33.6922826 0,34.7732609 C0,35.8532609 0.886264002,36.7297826 1.98047814,36.7297826 L2.65978216,36.7297826 L2.65978216,40.908913 C2.65978216,43.158913 4.52341212,45 6.80096198,45 L35.7882303,45 C39.2045551,45 42,42.2383696 42,38.8633696 L42,6.13663044 C42,2.76065218 39.2045551,0 35.7882303,0 Z" id="Shape"></path>
                <path d="M31,30 L13,30 L13,29.643 C13,25.1635 17.0508637,21.5 22,21.5 C19.6148931,21.5 17.681382,19.5972102 17.681382,17.25 C17.681382,14.9027898 19.6148931,13 22,13 C24.3851069,13 26.318618,14.9027898 26.318618,17.25 C26.318618,19.5972102 24.3851069,21.5 22,21.5 C26.9491363,21.5 31,25.1635 31,29.643 L31,30 Z" id="Shape"></path>
            </g>
        </g>
    </g>
</svg>