<?xml version="1.0" encoding="UTF-8"?>
<svg width="40px" height="43px" viewBox="0 0 40 43" version="1.1" xmlns="http://www.w3.org/2000/svg" xmlns:xlink="http://www.w3.org/1999/xlink">
    <!-- Generator: Sketch 48 (47235) - http://www.bohemiancoding.com/sketch -->
    <title>my -active</title>
    <desc>Created with Sketch.</desc>
    <defs></defs>
    <g id="标签栏图标（实）" stroke="none" stroke-width="1" fill="none" fill-rule="evenodd" transform="translate(-638.000000, -11.000000)">
        <g id="my--active" transform="translate(658.000000, 32.500000) scale(-1, 1) translate(-658.000000, -32.500000) translate(638.000000, 11.000000)" fill="#1B8AE0" fill-rule="nonzero">
            <g>
                <path d="M39.9928505,41.1264286 C39.3064961,32.4035714 33.7584652,25.1857143 26.2371656,22.575 C29.3829563,20.3942857 31.4706174,16.6164286 31.4706174,12.2857143 C31.4706174,5.49785714 26.3229599,0 20.0027804,0 C13.6826008,0 8.5349433,5.49785714 8.5349433,12.2857143 C8.5349433,16.6164286 10.6226044,20.3942857 13.7683951,22.575 C6.2756936,25.1857143 0.699064604,32.4035714 0.0127102655,41.1264286 C0.0127102655,41.28 -0.0158878319,41.4028571 0.0127102655,41.6178571 C0.0699064604,42.3857143 0.699064604,43 1.41401704,43 L38.5629456,43 C39.277898,43 39.9070562,42.3857143 39.9642524,41.6178571 C40.0214486,41.4028571 39.9928505,41.28 39.9928505,41.1264286 Z"></path>
            </g>
        </g>
    </g>
</svg>