<?xml version="1.0" encoding="UTF-8"?>
<svg width="44px" height="47px" viewBox="0 0 44 47" version="1.1" xmlns="http://www.w3.org/2000/svg" xmlns:xlink="http://www.w3.org/1999/xlink">
    <!-- Generator: Sketch 48 (47235) - http://www.bohemiancoding.com/sketch -->
    <title>my</title>
    <desc>Created with Sketch.</desc>
    <defs></defs>
    <g id="标签栏图标（空）" stroke="none" stroke-width="1" fill="none" fill-rule="evenodd" transform="translate(-636.000000, -9.000000)" fill-opacity="0">
        <g id="标签栏--copy" fill="#000000" fill-rule="nonzero" stroke="#9B9B9B" stroke-width="3">
            <g id="我的" transform="translate(658.000000, 32.500000) scale(-1, 1) translate(-658.000000, -32.500000) translate(636.000000, 9.000000)">
                <g id="my">
                    <path d="M41.9928505,43.1264286 C41.3064961,34.4035714 35.7584652,27.1857143 28.2371656,24.575 C31.3829563,22.3942857 33.4706174,18.6164286 33.4706174,14.2857143 C33.4706174,7.49785714 28.3229599,2 22.0027804,2 C15.6826008,2 10.5349433,7.49785714 10.5349433,14.2857143 C10.5349433,18.6164286 12.6226044,22.3942857 15.7683951,24.575 C8.2756936,27.1857143 2.6990646,34.4035714 2.01271027,43.1264286 C2.01271027,43.28 1.98411217,43.4028571 2.01271027,43.6178571 C2.06990646,44.3857143 2.6990646,45 3.41401704,45 L40.5629456,45 C41.277898,45 41.9070562,44.3857143 41.9642524,43.6178571 C42.0214486,43.4028571 41.9928505,43.28 41.9928505,43.1264286 Z"></path>
                </g>
            </g>
        </g>
    </g>
</svg>